<svg id="Layer_1" data-name="Layer 1" xmlns="http://www.w3.org/2000/svg" viewBox="0 0 86.15 46.95"><defs><style>.cls-1{fill:#e9eff7;}.cls-2{fill:none;stroke:#fff;stroke-miterlimit:10;stroke-width:0.9px;}.cls-3{fill:#3d4752;}</style></defs><title>external-shipment</title><rect class="cls-1" x="1.76" y="1.95" width="47.21" height="37.49" rx="1.13" ry="1.13"/><rect class="cls-2" x="1.76" y="1.95" width="47.21" height="37.49" rx="1.13" ry="1.13"/><path class="cls-1" d="M49,39.44,55.81,13.2h9a1.91,1.91,0,0,1,1.58,1l4.09,9.18a0.68,0.68,0,0,1-.67,1H56.93a1.11,1.11,0,0,1-1.12-1.12V13.2M49,39.44H81.64a1.11,1.11,0,0,0,1.13-1.12V25.58a1.11,1.11,0,0,0-1.12-1.12H77.18a1.92,1.92,0,0,1-1.62-1L69.71,10.5a1.92,1.92,0,0,0-1.62-1h-18A1.14,1.14,0,0,0,49,10.59V39.44"/><path class="cls-2" d="M49,39.44,55.81,13.2h9a1.91,1.91,0,0,1,1.58,1l4.09,9.18a0.68,0.68,0,0,1-.67,1H56.93a1.11,1.11,0,0,1-1.12-1.12V13.2M49,39.44H81.64a1.11,1.11,0,0,0,1.13-1.12V25.58a1.11,1.11,0,0,0-1.12-1.12H77.18a1.92,1.92,0,0,1-1.62-1L69.71,10.5a1.92,1.92,0,0,0-1.62-1h-18A1.14,1.14,0,0,0,49,10.59V39.44"/><path class="cls-3" d="M24,39.44C24,43.58,21,47,17.33,47s-6.84-3.37-6.84-7.51S13.6,32,17.33,32,24,35.3,24,39.44Z"/><path class="cls-2" d="M24,39.44C24,43.58,21,47,17.33,47s-6.84-3.37-6.84-7.51S13.6,32,17.33,32,24,35.3,24,39.44Z"/><path class="cls-3" d="M69.22,39.44c0,4.14-3,7.51-6.71,7.51s-6.71-3.37-6.71-7.51,3-7.47,6.71-7.47S69.22,35.3,69.22,39.44Z"/><path class="cls-2" d="M69.22,39.44c0,4.14-3,7.51-6.71,7.51s-6.71-3.37-6.71-7.51,3-7.47,6.71-7.47S69.22,35.3,69.22,39.44Z"/></svg>