<svg id="Layer_1" data-name="Layer 1" xmlns="http://www.w3.org/2000/svg" viewBox="0 0 88.01 69.16"><defs><style>.cls-1{fill:#e9eff7;}.cls-2,.cls-3{fill:none;stroke-miterlimit:10;stroke-width:0.9px;}.cls-2{stroke:#fff;}.cls-3{stroke:#3d4752;}</style></defs><title>dedicated-process</title><rect class="cls-1" x="6.48" y="7.4" width="72" height="54" rx="1.13" ry="1.13"/><line class="cls-2" x1="6.48" y1="25.4" x2="78.48" y2="25.4"/><path class="cls-1" d="M17.73,54.74A3.87,3.87,0,0,1,14,59a4.14,4.14,0,0,1-4-4V54.83"/><path class="cls-3" d="M17.73,54.74A3.87,3.87,0,0,1,14,59a4.14,4.14,0,0,1-4-4V54.83"/><path class="cls-1" d="M11.43,55.37A2.33,2.33,0,0,1,13.77,53a2.5,2.5,0,0,1,2.65,2.2,2.27,2.27,0,0,1-2.29,2.39A2.55,2.55,0,0,1,11.43,55.37Z"/><path class="cls-3" d="M11.43,55.37A2.33,2.33,0,0,1,13.77,53a2.5,2.5,0,0,1,2.65,2.2,2.27,2.27,0,0,1-2.29,2.39A2.55,2.55,0,0,1,11.43,55.37Z"/></svg>