<svg id="Layer_1" data-name="Layer 1" xmlns="http://www.w3.org/2000/svg" viewBox="0 0 75.04 24.54"><defs><style>.cls-1{fill:#3d4752;opacity:0.99;}.cls-2{fill:#fff;}</style></defs><title>push-arrow</title><path class="cls-1" d="M4.09,7.74A1.11,1.11,0,0,1,5.22,6.61H60.34a1.11,1.11,0,0,0,1.13-1.12V2.11c0-.63.32-0.76,0.77-0.27l8.6,9.54a1.25,1.25,0,0,1,0,1.71l-8.6,9.54c-0.45.49-.77,0.36-0.77-0.27V19a1.11,1.11,0,0,0-1.12-1.12H5.22a1.11,1.11,0,0,1-1.12-1.12v-9Z"/><rect class="cls-2" x="9.99" y="9.45" width="16.87" height="5.63"/><rect class="cls-2" x="38.7" y="9.45" width="16.88" height="5.63"/></svg>